<svg width="24" height="24" viewBox="0 0 24 24" fill="none" xmlns="http://www.w3.org/2000/svg">
<path d="M6.4999 10.0003C6.2769 10.0003 6.0629 10.0343 5.8499 10.0653C5.9189 9.83327 5.9899 9.59727 6.1039 9.38527C6.2179 9.07727 6.3959 8.81027 6.5729 8.54127C6.7209 8.25027 6.9819 8.05327 7.1739 7.80427C7.3749 7.56227 7.6489 7.40127 7.8659 7.20027C8.0789 6.99027 8.3579 6.88527 8.5799 6.73727C8.8119 6.60427 9.0139 6.45727 9.2299 6.38727L9.7689 6.16527L10.2429 5.96827L9.7579 4.03027L9.1609 4.17427C8.9699 4.22227 8.7369 4.27827 8.4719 4.34527C8.2009 4.39527 7.9119 4.53227 7.5899 4.65727C7.2719 4.79927 6.9039 4.89527 6.5619 5.12327C6.2179 5.34127 5.8209 5.52327 5.4709 5.81527C5.1319 6.11627 4.7229 6.37727 4.4209 6.76027C4.0909 7.11827 3.7649 7.49427 3.5119 7.92227C3.2189 8.33027 3.0199 8.77827 2.8099 9.22127C2.6199 9.66427 2.4669 10.1173 2.3419 10.5573C2.1049 11.4393 1.9989 12.2773 1.9579 12.9943C1.9239 13.7123 1.9439 14.3093 1.9859 14.7413C2.0009 14.9453 2.0289 15.1433 2.0489 15.2803L2.0739 15.4483L2.0999 15.4423C2.27776 16.2731 2.6872 17.0366 3.28086 17.6445C3.87452 18.2523 4.62814 18.6797 5.45454 18.8771C6.28094 19.0745 7.14635 19.034 7.95066 18.7601C8.75496 18.4862 9.46531 17.9903 9.99951 17.3296C10.5337 16.6688 10.8699 15.8704 10.9693 15.0266C11.0687 14.1827 10.9271 13.328 10.561 12.5613C10.1949 11.7946 9.61924 11.1471 8.90055 10.6939C8.18187 10.2407 7.34956 10.0002 6.4999 10.0003ZM17.4999 10.0003C17.2769 10.0003 17.0629 10.0343 16.8499 10.0653C16.9189 9.83327 16.9899 9.59727 17.1039 9.38527C17.2179 9.07727 17.3959 8.81027 17.5729 8.54127C17.7209 8.25027 17.9819 8.05327 18.1739 7.80427C18.3749 7.56227 18.6489 7.40127 18.8659 7.20027C19.0789 6.99027 19.3579 6.88527 19.5799 6.73727C19.8119 6.60427 20.0139 6.45727 20.2299 6.38727L20.7689 6.16527L21.2429 5.96827L20.7579 4.03027L20.1609 4.17427C19.9699 4.22227 19.7369 4.27827 19.4719 4.34527C19.2009 4.39527 18.9119 4.53227 18.5899 4.65727C18.2729 4.80027 17.9039 4.89527 17.5619 5.12427C17.2179 5.34227 16.8209 5.52427 16.4709 5.81627C16.1319 6.11727 15.7229 6.37827 15.4209 6.76027C15.0909 7.11827 14.7649 7.49427 14.5119 7.92227C14.2189 8.33027 14.0199 8.77827 13.8099 9.22127C13.6199 9.66427 13.4669 10.1173 13.3419 10.5573C13.1049 11.4393 12.9989 12.2773 12.9579 12.9943C12.9239 13.7123 12.9439 14.3093 12.9859 14.7413C13.0009 14.9453 13.0289 15.1433 13.0489 15.2803L13.0739 15.4483L13.0999 15.4423C13.2778 16.2731 13.6872 17.0366 14.2809 17.6445C14.8745 18.2523 15.6281 18.6797 16.4545 18.8771C17.2809 19.0745 18.1463 19.034 18.9507 18.7601C19.755 18.4862 20.4653 17.9903 20.9995 17.3296C21.5337 16.6688 21.8699 15.8704 21.9693 15.0266C22.0687 14.1827 21.9271 13.328 21.561 12.5613C21.1949 11.7946 20.6192 11.1471 19.9006 10.6939C19.1819 10.2407 18.3496 10.0002 17.4999 10.0003Z" fill="url(#paint0_linear_18_1243)"/>
<defs>
<linearGradient id="paint0_linear_18_1243" x1="1.94067" y1="7.70634" x2="20.3488" y2="16.5002" gradientUnits="userSpaceOnUse">
<stop stop-color="#FFAD6E"/>
<stop offset="1" stop-color="#FF892F"/>
</linearGradient>
</defs>
</svg>
