<svg width="18" height="18" viewBox="0 0 18 18" fill="none" xmlns="http://www.w3.org/2000/svg">
<path d="M16.2355 1.89135C16.2296 1.8625 16.2155 1.83595 16.1949 1.81484C16.1744 1.79373 16.1482 1.77892 16.1195 1.77217C14.2077 1.30459 9.7914 2.97065 7.3962 5.36408C6.96933 5.78745 6.58009 6.24716 6.23288 6.73799C5.4946 6.67119 4.75632 6.72744 4.12773 7.00166C2.35269 7.78213 1.83624 9.82049 1.6921 10.6955C1.68429 10.7435 1.68763 10.7926 1.70185 10.839C1.71607 10.8855 1.7408 10.928 1.77412 10.9634C1.80743 10.9987 1.84844 11.026 1.89397 11.0429C1.93949 11.0599 1.98831 11.0661 2.03663 11.0612L4.88675 10.7483C4.88872 10.9632 4.90163 11.178 4.92542 11.3916C4.9403 11.5393 5.00619 11.6772 5.11175 11.7815L6.21531 12.8851C6.31973 12.9907 6.45774 13.0566 6.60554 13.0714C6.81791 13.0951 7.03135 13.108 7.24503 13.1101L6.93249 15.9577C6.92761 16.006 6.9339 16.0547 6.95086 16.1002C6.96782 16.1456 6.995 16.1866 7.03031 16.2198C7.06562 16.2531 7.1081 16.2778 7.15448 16.292C7.20085 16.3063 7.24988 16.3096 7.29777 16.3019C8.17316 16.1613 10.2157 15.6448 10.9916 13.8701C11.2659 13.2408 11.3221 12.5064 11.2588 11.7717C11.7511 11.4248 12.2121 11.0355 12.6366 10.6083C15.0406 8.21772 16.6961 3.89842 16.2355 1.89135ZM10.4998 7.51143C10.2898 7.3015 10.1468 7.03401 10.0889 6.74281C10.0309 6.4516 10.0606 6.14975 10.1742 5.87542C10.2878 5.6011 10.4802 5.36663 10.7271 5.20166C10.974 5.03669 11.2642 4.94864 11.5612 4.94864C11.8581 4.94864 12.1483 5.03669 12.3952 5.20166C12.6421 5.36663 12.8345 5.6011 12.9481 5.87542C13.0617 6.14975 13.0914 6.4516 13.0335 6.74281C12.9755 7.03401 12.8325 7.3015 12.6225 7.51143C12.4833 7.651 12.3178 7.76173 12.1357 7.83728C11.9536 7.91283 11.7583 7.95172 11.5612 7.95172C11.364 7.95172 11.1688 7.91283 10.9866 7.83728C10.8045 7.76173 10.6391 7.651 10.4998 7.51143V7.51143Z" stroke="#EDEDED" stroke-linecap="round" stroke-linejoin="round"/>
<path d="M3.85453 12.375C3.50406 12.418 3.17802 12.5769 2.92816 12.8264C2.30871 13.448 2.25 15.75 2.25 15.75C2.25 15.75 4.55344 15.6913 5.17324 15.0711C5.42376 14.8217 5.58291 14.4951 5.625 14.1441" stroke="#EDEDED" stroke-linecap="round" stroke-linejoin="round"/>
</svg>
