<svg width="45" height="45" viewBox="0 0 45 45" fill="none" xmlns="http://www.w3.org/2000/svg">
<g opacity="0.25">
<path d="M12.1872 18.7504C11.7691 18.7504 11.3678 18.8141 10.9685 18.8723C11.0978 18.4373 11.231 17.9948 11.4447 17.5973C11.6585 17.0198 11.9922 16.5191 12.3241 16.0148C12.6016 15.4691 13.091 15.0998 13.451 14.6329C13.8278 14.1791 14.3416 13.8773 14.7485 13.5004C15.1478 13.1066 15.671 12.9098 16.0872 12.6323C16.5222 12.3829 16.901 12.1073 17.306 11.976L18.3166 11.5598L19.2053 11.1904L18.296 7.55664L17.1766 7.82664C16.8185 7.91664 16.3816 8.02164 15.8847 8.14726C15.3766 8.24101 14.8347 8.49789 14.231 8.73227C13.6347 8.99852 12.9447 9.17852 12.3035 9.60602C11.6585 10.0148 10.9141 10.356 10.2578 10.9035C9.62222 11.4679 8.85535 11.9573 8.2891 12.6754C7.67035 13.3466 7.0591 14.0516 6.58472 14.8541C6.03535 15.6191 5.66222 16.4591 5.26847 17.2898C4.91222 18.1204 4.62535 18.9698 4.39097 19.7948C3.9466 21.4485 3.74785 23.0198 3.67097 24.3641C3.60722 25.7104 3.64472 26.8298 3.72347 27.6398C3.7516 28.0223 3.8041 28.3935 3.8416 28.6504L3.88847 28.9654L3.93722 28.9541C4.27071 30.5119 5.03842 31.9435 6.15153 33.0832C7.26464 34.2229 8.67768 35.0242 10.2272 35.3944C11.7767 35.7646 13.3993 35.6886 14.9074 35.1751C16.4155 34.6616 17.7474 33.7316 18.749 32.4928C19.7506 31.254 20.3811 29.7569 20.5674 28.1747C20.7537 26.5925 20.4883 24.9899 19.8018 23.5523C19.1154 22.1147 18.036 20.9008 16.6884 20.051C15.3409 19.2012 13.7803 18.7503 12.1872 18.7504ZM32.8122 18.7504C32.3941 18.7504 31.9928 18.8141 31.5935 18.8723C31.7228 18.4373 31.856 17.9948 32.0697 17.5973C32.2835 17.0198 32.6172 16.5191 32.9491 16.0148C33.2266 15.4691 33.716 15.0998 34.076 14.6329C34.4528 14.1791 34.9666 13.8773 35.3735 13.5004C35.7728 13.1066 36.296 12.9098 36.7122 12.6323C37.1472 12.3829 37.526 12.1073 37.931 11.976L38.9416 11.5598L39.8303 11.1904L38.921 7.55664L37.8016 7.82664C37.4435 7.91664 37.0066 8.02164 36.5097 8.14726C36.0016 8.24101 35.4597 8.49789 34.856 8.73227C34.2616 9.00039 33.5697 9.17852 32.9285 9.60789C32.2835 10.0166 31.5391 10.3579 30.8828 10.9054C30.2472 11.4698 29.4803 11.9591 28.9141 12.6754C28.2953 13.3466 27.6841 14.0516 27.2097 14.8541C26.6603 15.6191 26.2872 16.4591 25.8935 17.2898C25.5372 18.1204 25.2503 18.9698 25.016 19.7948C24.5716 21.4485 24.3728 23.0198 24.296 24.3641C24.2322 25.7104 24.2697 26.8298 24.3485 27.6398C24.3766 28.0223 24.4291 28.3935 24.4666 28.6504L24.5135 28.9654L24.5622 28.9541C24.8957 30.5119 25.6634 31.9435 26.7765 33.0832C27.8896 34.2229 29.3027 35.0242 30.8522 35.3944C32.4017 35.7646 34.0243 35.6886 35.5324 35.1751C37.0405 34.6616 38.3724 33.7316 39.374 32.4928C40.3756 31.254 41.0061 29.7569 41.1924 28.1747C41.3787 26.5925 41.1133 24.9899 40.4268 23.5523C39.7404 22.1147 38.661 20.9008 37.3134 20.051C35.9659 19.2012 34.4053 18.7503 32.8122 18.7504Z" fill="#EA5D3F"/>
</g>
</svg>
