<svg width="55" height="55" viewBox="0 0 55 55" fill="none" xmlns="http://www.w3.org/2000/svg">
<g opacity="0.4">
<path d="M14.8955 22.9176C14.3845 22.9176 13.894 22.9955 13.4059 23.0665C13.564 22.5349 13.7267 21.994 13.988 21.5082C14.2492 20.8024 14.6572 20.1905 15.0628 19.574C15.402 18.9072 16.0001 18.4557 16.4401 17.8851C16.9007 17.3305 17.5286 16.9615 18.0259 16.5009C18.514 16.0197 19.1534 15.779 19.6622 15.4399C20.1938 15.1351 20.6567 14.7982 21.1517 14.6378L22.387 14.129L23.4732 13.6776L22.3617 9.23633L20.9936 9.56633C20.5559 9.67633 20.022 9.80466 19.4147 9.9582C18.7936 10.0728 18.1313 10.3867 17.3934 10.6732C16.6647 10.9986 15.8213 11.2186 15.0376 11.7411C14.2492 12.2407 13.3395 12.6578 12.5374 13.327C11.7605 14.0167 10.8232 14.6149 10.1311 15.4926C9.37487 16.313 8.62779 17.1747 8.048 18.1555C7.37654 19.0905 6.92049 20.1172 6.43924 21.1324C6.00383 22.1476 5.6532 23.1857 5.36674 24.194C4.82362 26.2153 4.5807 28.1357 4.48674 29.7788C4.40883 31.4242 4.45466 32.7924 4.55091 33.7824C4.58529 34.2499 4.64945 34.7036 4.69529 35.0176L4.75258 35.4026L4.81216 35.3888C5.21976 37.2928 6.15807 39.0425 7.51854 40.4355C8.87901 41.8285 10.606 42.8078 12.4999 43.2603C14.3937 43.7127 16.3769 43.6198 18.2201 42.9922C20.0633 42.3646 21.6912 41.228 22.9154 39.7138C24.1396 38.1997 24.9102 36.3699 25.1379 34.4362C25.3656 32.5024 25.0412 30.5437 24.2023 28.7866C23.3633 27.0295 22.044 25.5458 20.397 24.5072C18.75 23.4686 16.8426 22.9174 14.8955 22.9176ZM40.1038 22.9176C39.5928 22.9176 39.1024 22.9955 38.6142 23.0665C38.7724 22.5349 38.9351 21.994 39.1963 21.5082C39.4576 20.8024 39.8655 20.1905 40.2711 19.574C40.6103 18.9072 41.2084 18.4557 41.6484 17.8851C42.109 17.3305 42.737 16.9615 43.2342 16.5009C43.7224 16.0197 44.3617 15.779 44.8705 15.4399C45.4022 15.1351 45.8651 14.7982 46.3601 14.6378L47.5953 14.129L48.6815 13.6776L47.5701 9.23633L46.202 9.56633C45.7642 9.67633 45.2303 9.80466 44.623 9.9582C44.002 10.0728 43.3397 10.3867 42.6017 10.6732C41.8753 11.0009 41.0297 11.2186 40.2459 11.7434C39.4576 12.243 38.5478 12.6601 37.7457 13.3292C36.9688 14.019 36.0315 14.6172 35.3395 15.4926C34.5832 16.313 33.8361 17.1747 33.2563 18.1555C32.5849 19.0905 32.1288 20.1172 31.6476 21.1324C31.2122 22.1476 30.8615 23.1857 30.5751 24.194C30.032 26.2153 29.789 28.1357 29.6951 29.7788C29.6172 31.4242 29.663 32.7924 29.7592 33.7824C29.7936 34.2499 29.8578 34.7036 29.9036 35.0176L29.9609 35.4026L30.0205 35.3888C30.4281 37.2928 31.3664 39.0425 32.7269 40.4355C34.0873 41.8285 35.8144 42.8078 37.7082 43.2603C39.602 43.7127 41.5853 43.6198 43.4285 42.9922C45.2717 42.3646 46.8995 41.228 48.1238 39.7138C49.348 38.1997 50.1185 36.3699 50.3462 34.4362C50.574 32.5024 50.2496 30.5437 49.4106 28.7866C48.5716 27.0295 47.2523 25.5458 45.6053 24.5072C43.9583 23.4686 42.051 22.9174 40.1038 22.9176Z" fill="#647589"/>
</g>
</svg>
